<?xml version="1.0" standalone="no"?>
<!DOCTYPE svg PUBLIC "-//W3C//DTD SVG 20010904//EN"
 "http://www.w3.org/TR/2001/REC-SVG-20010904/DTD/svg10.dtd">
<svg version="1.0" xmlns="http://www.w3.org/2000/svg"
 width="32.000000pt" height="32.000000pt" viewBox="0 0 32.000000 32.000000"
 preserveAspectRatio="xMidYMid meet">

<g transform="translate(0.000000,32.000000) scale(0.100000,-0.100000)"
fill="#000000" stroke="none">
<path d="M0 160 l0 -160 160 0 160 0 0 160 0 160 -160 0 -160 0 0 -160z m74
67 c14 -10 17 -25 14 -72 l-3 -60 -37 -3 -38 -3 0 69 c0 38 3 72 7 75 10 11
38 8 57 -6z m106 -2 c0 -8 -9 -15 -20 -15 -11 0 -20 -7 -20 -15 0 -8 5 -15 10
-15 6 0 10 -7 10 -15 0 -8 -4 -15 -10 -15 -5 0 -10 -9 -10 -20 0 -13 7 -20 20
-20 11 0 20 -4 20 -10 0 -5 -16 -10 -35 -10 l-35 0 0 69 c0 72 4 79 48 80 13
1 22 -5 22 -14z m61 -38 c7 -24 14 -36 17 -27 33 100 58 102 33 3 -14 -53 -21
-68 -36 -68 -14 0 -22 15 -36 64 -18 62 -17 87 1 76 5 -3 15 -25 21 -48z"/>
<path d="M40 161 c0 -41 3 -49 16 -44 18 7 16 84 -3 91 -9 2 -13 -11 -13 -47z"/>
</g>
</svg>
